<?xml version="1.0" encoding="UTF-8" standalone="no"?>
<!-- Created with Inkscape (http://www.inkscape.org/) -->

<svg
   width="100mm"
   height="100mm"
   viewBox="0 0 100 100"
   version="1.1"
   id="svg5"
   sodipodi:docname="medal.svg"
   inkscape:version="1.1 (c68e22c387, 2021-05-23)"
   inkscape:export-filename="D:\Dev\Unity\Climb!\Assets\UI\Sprites\medal.png"
   inkscape:export-xdpi="65.024002"
   inkscape:export-ydpi="65.024002"
   xmlns:inkscape="http://www.inkscape.org/namespaces/inkscape"
   xmlns:sodipodi="http://sodipodi.sourceforge.net/DTD/sodipodi-0.dtd"
   xmlns="http://www.w3.org/2000/svg"
   xmlns:svg="http://www.w3.org/2000/svg">
  <sodipodi:namedview
     id="namedview7"
     pagecolor="#505050"
     bordercolor="#ffffff"
     borderopacity="1"
     inkscape:pageshadow="0"
     inkscape:pageopacity="0"
     inkscape:pagecheckerboard="1"
     inkscape:document-units="mm"
     showgrid="false"
     inkscape:zoom="1.5729479"
     inkscape:cx="126.83192"
     inkscape:cy="206.30054"
     inkscape:window-width="1920"
     inkscape:window-height="1017"
     inkscape:window-x="-8"
     inkscape:window-y="-8"
     inkscape:window-maximized="1"
     inkscape:current-layer="layer1"
     width="100mm" />
  <defs
     id="defs2">
    <marker
       style="overflow:visible"
       id="Arrow2Lstart"
       refX="0"
       refY="0"
       orient="auto"
       inkscape:stockid="Arrow2Lstart"
       inkscape:isstock="true">
      <path
         transform="matrix(1.1,0,0,1.1,1.1,0)"
         d="M 8.7185878,4.0337352 -2.2072895,0.01601326 8.7185884,-4.0017078 c -1.7454984,2.3720609 -1.7354408,5.6174519 -6e-7,8.035443 z"
         style="fill:context-stroke;fill-rule:evenodd;stroke-width:0.625;stroke-linejoin:round"
         id="path3491" />
    </marker>
    <marker
       style="overflow:visible"
       id="Tail"
       refX="0"
       refY="0"
       orient="auto"
       inkscape:stockid="Tail"
       inkscape:isstock="true">
      <g
         transform="scale(-1.2)"
         id="g3521">
        <path
           style="fill:none;fill-rule:evenodd;stroke:context-stroke;stroke-width:0.8;stroke-linecap:round"
           d="M -3.8048674,-3.9585227 0.54352094,0"
           id="path3509" />
        <path
           style="fill:none;fill-rule:evenodd;stroke:context-stroke;stroke-width:0.8;stroke-linecap:round"
           d="M -1.2866832,-3.9585227 3.0617053,0"
           id="path3511" />
        <path
           style="fill:none;fill-rule:evenodd;stroke:context-stroke;stroke-width:0.8;stroke-linecap:round"
           d="M 1.3053582,-3.9585227 5.6537466,0"
           id="path3513" />
        <path
           style="fill:none;fill-rule:evenodd;stroke:context-stroke;stroke-width:0.8;stroke-linecap:round"
           d="M -3.8048674,4.1775838 0.54352094,0.21974226"
           id="path3515" />
        <path
           style="fill:none;fill-rule:evenodd;stroke:context-stroke;stroke-width:0.8;stroke-linecap:round"
           d="M -1.2866832,4.1775838 3.0617053,0.21974226"
           id="path3517" />
        <path
           style="fill:none;fill-rule:evenodd;stroke:context-stroke;stroke-width:0.8;stroke-linecap:round"
           d="M 1.3053582,4.1775838 5.6537466,0.21974226"
           id="path3519" />
      </g>
    </marker>
    <marker
       style="overflow:visible"
       id="marker4649"
       refX="0"
       refY="0"
       orient="auto"
       inkscape:stockid="Arrow1Lstart"
       inkscape:isstock="true">
      <path
         transform="matrix(0.8,0,0,0.8,10,0)"
         style="fill:context-stroke;fill-rule:evenodd;stroke:context-stroke;stroke-width:1pt"
         d="M 0,0 5,-5 -12.5,0 5,5 Z"
         id="path4647" />
    </marker>
    <marker
       style="overflow:visible"
       id="Arrow1Lstart"
       refX="0"
       refY="0"
       orient="auto"
       inkscape:stockid="Arrow1Lstart"
       inkscape:isstock="true">
      <path
         transform="matrix(0.2,0,0,0.2,-0.4,0)"
         style="fill:context-stroke;fill-rule:evenodd;stroke:context-stroke;stroke-width:1pt"
         d="M 0,0 5,-5 -12.5,0 5,5 Z"
         id="path3473" />
    </marker>
    <marker
       style="overflow:visible"
       id="Arrow1Lend"
       refX="0"
       refY="0"
       orient="auto"
       inkscape:stockid="Arrow1Lend"
       inkscape:isstock="true">
      <path
         transform="matrix(-0.8,0,0,-0.8,-10,0)"
         style="fill:context-stroke;fill-rule:evenodd;stroke:context-stroke;stroke-width:1pt"
         d="M 0,0 5,-5 -12.5,0 5,5 Z"
         id="path3476" />
    </marker>
  </defs>
  <g
     inkscape:label="Layer 1"
     inkscape:groupmode="layer"
     id="layer1">
    <path
       id="rect1179"
       style="fill:#ffffff;fill-opacity:1;stroke:none;stroke-width:7.55906;stroke-linecap:square;stroke-linejoin:round;stroke-miterlimit:4;stroke-dasharray:none;paint-order:markers fill stroke"
       d="M 148.93164 226.07227 L 120.19922 333.30078 C 119.11536 337.3458 121.49795 341.47473 125.54297 342.55859 L 165.70117 353.31836 C 169.7462 354.40222 173.87708 352.01963 174.96094 347.97461 L 188.97656 295.66602 L 172.1543 232.88672 A 102.04724 102.04724 0 0 1 148.93164 226.07227 z "
       transform="scale(0.26458333)" />
    <path
       id="rect1179-1"
       style="fill:#ffffff;fill-opacity:1;stroke:none;stroke-width:7.55906;stroke-linecap:square;stroke-linejoin:round;stroke-miterlimit:4;stroke-dasharray:none;stroke-opacity:1;paint-order:markers fill stroke"
       d="M 229.02148 226.07227 A 102.04724 102.04724 0 0 1 188.97656 234.33008 A 102.04724 102.04724 0 0 1 180.25586 233.92188 L 210.29297 346.01758 C 211.37683 350.0626 215.50576 352.44714 219.55078 351.36328 L 252.4082 342.55859 C 256.45323 341.47473 258.83777 337.3458 257.75391 333.30078 L 229.02148 226.07227 z "
       transform="scale(0.26458333)" />
    <path
       id="path907"
       style="fill:#ffffff;fill-opacity:1;stroke:none;stroke-width:7.55906;stroke-linecap:square;stroke-linejoin:round;stroke-miterlimit:4;stroke-dasharray:none;paint-order:markers fill stroke"
       d="M 188.97656 37.794922 A 94.488189 94.488189 0 0 0 94.488281 132.2832 A 94.488189 94.488189 0 0 0 188.97656 226.77148 A 94.488189 94.488189 0 0 0 283.46484 132.2832 A 94.488189 94.488189 0 0 0 188.97656 37.794922 z M 188.97656 91.328125 C 191.71526 91.328125 204.2824 110.76719 206.49805 112.37695 C 208.7137 113.98672 231.08534 119.93246 231.93164 122.53711 C 232.77794 125.14176 218.17443 143.10043 217.32812 145.70508 C 216.48182 148.30973 217.73909 171.42344 215.52344 173.0332 C 213.30779 174.64297 191.71526 166.30273 188.97656 166.30273 C 186.23787 166.30273 164.64534 174.64297 162.42969 173.0332 C 160.21404 171.42344 161.4713 148.30973 160.625 145.70508 C 159.7787 143.10043 145.17518 125.14176 146.02148 122.53711 C 146.86779 119.93246 169.23943 113.98672 171.45508 112.37695 C 173.67073 110.76719 186.23787 91.328125 188.97656 91.328125 z "
       transform="scale(0.26458333)" />
  </g>
</svg>
